<?xml version="1.0" standalone="no"?>
<!DOCTYPE svg PUBLIC "-//W3C//DTD SVG 20010904//EN"
 "http://www.w3.org/TR/2001/REC-SVG-20010904/DTD/svg10.dtd">
<svg version="1.0" xmlns="http://www.w3.org/2000/svg"
 width="400.000000pt" height="386.000000pt" viewBox="0 0 400.000000 386.000000"
 preserveAspectRatio="xMidYMid meet">
<metadata>
Created by potrace 1.16, written by Peter Selinger 2001-2019
</metadata>
<g transform="translate(0.000000,386.000000) scale(0.100000,-0.100000)"
fill="#000000" stroke="none">
<path d="M1312 3847 c-12 -7 -29 -23 -38 -35 -8 -12 -21 -22 -27 -22 -7 0 -23
-9 -37 -20 l-25 -20 33 0 c26 0 33 -4 30 -17 -2 -10 -13 -19 -26 -21 -18 -3
-20 -6 -11 -23 5 -11 15 -17 21 -13 5 4 14 0 19 -7 13 -21 11 -26 -11 -32 -11
-3 -20 -13 -20 -22 0 -12 7 -16 27 -13 24 3 29 -2 46 -47 19 -49 54 -124 91
-192 26 -50 12 -52 -32 -6 -42 44 -77 110 -87 166 -5 23 -13 37 -22 37 -13 0
-15 -9 -10 -45 12 -86 72 -177 148 -226 73 -48 87 -106 45 -195 -35 -76 -91
-117 -189 -138 -41 -9 -28 -31 16 -29 72 4 154 61 196 135 l29 50 7 -32 c15
-68 -103 -174 -218 -195 -26 -5 -37 -12 -37 -25 0 -17 4 -17 53 -6 74 18 132
50 181 102 l43 45 6 -28 c4 -19 0 -35 -13 -48 -28 -32 -40 -61 -40 -100 0 -49
22 -89 65 -113 33 -20 48 -52 25 -52 -19 0 -64 27 -86 52 -32 35 -45 65 -47
109 -1 29 -5 38 -15 34 -7 -3 -16 -5 -18 -5 -2 0 -4 -15 -4 -32 1 -75 69 -163
144 -188 25 -8 36 -18 36 -31 0 -10 -6 -19 -12 -19 -26 0 -114 48 -140 76 -33
36 -67 110 -68 146 0 20 -4 26 -15 22 -42 -16 6 -148 75 -207 64 -55 199 -97
396 -123 l125 -17 33 32 c17 17 40 31 50 31 17 0 18 7 14 65 -6 65 3 88 25 66
8 -8 8 -14 -1 -23 -7 -7 -12 -36 -12 -65 0 -49 -2 -53 -23 -53 -13 0 -34 -11
-47 -25 l-23 -25 71 0 72 0 0 48 c0 26 -5 53 -10 58 -8 8 -6 15 5 24 17 14 17
15 19 -65 l1 -60 35 2 c54 4 181 31 243 52 46 15 57 16 57 5 0 -19 16 -18 96
7 104 32 178 74 242 134 54 52 77 70 53 42 -6 -8 -9 -16 -6 -19 3 -2 -4 -52
-14 -109 -11 -58 -33 -197 -51 -309 -17 -113 -43 -265 -57 -338 l-27 -132 22
-39 c12 -21 19 -40 16 -43 -2 -3 8 -13 23 -23 25 -17 26 -17 14 -1 -18 21 -9
289 15 479 16 131 72 394 104 492 18 57 19 58 19 23 2 -104 94 -251 270 -428
l123 -125 28 -117 c15 -65 26 -118 24 -118 -1 0 -28 37 -60 83 -31 45 -103
145 -159 222 -160 220 -235 349 -235 403 0 14 -4 21 -11 16 -7 -4 -9 -25 -4
-61 17 -140 96 -286 254 -473 20 -24 36 -62 50 -117 12 -45 24 -90 27 -100 13
-36 -15 2 -107 147 -108 170 -191 324 -226 418 l-24 67 4 -80 c6 -94 46 -214
107 -316 22 -37 40 -74 40 -82 0 -12 29 -118 55 -202 12 -39 -118 220 -147
294 -17 41 -41 115 -54 165 l-23 91 -1 -71 c-1 -224 118 -504 293 -690 70 -75
114 -150 132 -229 l12 -50 8 48 c12 80 -15 162 -127 388 l-103 205 97 -100 97
-101 41 -123 c28 -85 41 -141 42 -185 l1 -62 15 35 c39 86 10 266 -72 458
l-36 83 60 -51 c49 -44 60 -59 69 -99 21 -97 32 -188 34 -268 1 -45 5 -79 8
-75 19 19 39 124 39 199 0 99 -21 207 -60 315 -16 43 -25 78 -21 78 4 0 26
-19 48 -42 36 -37 44 -53 54 -113 7 -38 13 -134 14 -212 0 -78 3 -139 7 -135
3 4 17 36 29 72 18 52 22 87 22 175 0 137 -23 240 -89 400 -5 14 9 6 44 -23
29 -24 52 -41 52 -37 0 12 -93 129 -155 194 -33 35 -135 129 -227 208 -93 79
-168 146 -168 149 0 2 27 -18 61 -46 33 -28 65 -47 71 -44 6 4 9 3 6 -2 -4 -5
7 -9 23 -9 l29 0 -27 20 c-15 11 -39 30 -53 43 -26 23 303 -197 366 -244 l35
-27 -7 43 c-7 44 -37 78 -139 158 -58 45 -58 52 -1 12 46 -31 62 -37 51 -20
-3 6 1 7 9 4 9 -3 13 -11 9 -18 -4 -6 1 -5 10 3 14 11 17 11 17 0 0 -11 2 -11
10 1 8 12 10 10 11 -10 1 -22 3 -20 12 10 6 19 14 37 17 40 4 3 12 27 19 54 7
28 21 70 32 94 53 117 91 231 96 295 l6 68 -47 45 c-32 30 -53 43 -64 39 -9
-3 -13 -3 -9 1 9 9 -21 44 -38 44 -15 0 -65 -53 -65 -69 0 -16 -32 -10 -38 7
-2 6 2 12 9 12 7 0 28 14 46 31 l32 32 -24 18 c-26 21 -45 25 -45 9 0 -5 5
-10 10 -10 6 0 10 -7 10 -15 0 -8 -9 -15 -20 -15 -23 0 -25 12 -9 42 9 18 8
24 -7 35 -25 18 -58 -11 -49 -45 7 -30 -3 -46 -20 -32 -15 12 -8 33 25 74 14
17 12 21 -20 47 l-35 30 -3 -82 c-2 -65 1 -85 14 -100 9 -10 21 -17 27 -16 6
1 13 -6 15 -15 6 -31 -25 -20 -47 16 -17 27 -21 50 -21 118 0 70 -3 88 -18
101 -10 10 -22 17 -25 17 -4 0 -7 -89 -7 -198 l0 -198 -66 -64 c-36 -36 -70
-75 -75 -87 -10 -26 -42 -32 -37 -7 2 8 6 14 10 12 4 -2 41 31 83 72 l75 74 0
209 c0 189 -2 208 -17 214 -10 4 -23 14 -30 22 -10 13 -12 -20 -13 -162 0
-165 -2 -181 -21 -208 -20 -29 -39 -31 -39 -4 0 7 10 15 23 17 22 3 22 5 25
189 2 157 0 188 -13 199 -13 11 -15 -5 -15 -142 0 -93 4 -158 10 -164 8 -8 6
-15 -5 -24 -18 -15 -17 -31 -15 176 1 113 -2 174 -9 179 -8 4 -11 -38 -11
-137 l0 -144 -50 -49 c-51 -50 -60 -71 -38 -93 14 -14 -4 -38 -21 -28 -22 14
2 71 50 121 l49 51 0 147 c0 96 -4 146 -10 142 -6 -3 -10 -49 -10 -103 l0 -98
-50 -49 -50 -49 0 -107 c0 -111 5 -125 53 -142 19 -7 22 -22 6 -33 -6 -3 -24
9 -39 27 -28 33 -29 37 -30 149 l0 114 49 51 49 50 4 107 3 108 -62 -62 -63
-62 -2 -111 -2 -110 -3 109 -4 110 63 64 63 63 -50 44 c-27 24 -52 42 -54 39
-3 -3 -4 -25 -2 -49 1 -28 -2 -45 -9 -45 -7 0 -10 20 -9 56 2 40 -2 59 -12 65
-158 100 -164 101 -258 73 l-54 -16 127 -127 126 -128 0 -64 0 -65 -53 -52
c-34 -34 -61 -52 -77 -52 -13 0 -39 -14 -59 -32 -35 -34 -34 -21 2 20 13 14
32 22 52 22 26 0 42 10 79 50 44 47 46 52 46 107 l0 58 -127 127 c-106 107
-129 125 -145 117 -14 -8 -18 -22 -18 -72 0 -55 4 -67 30 -97 23 -28 29 -45
30 -82 0 -26 5 -50 10 -53 13 -8 3 -25 -14 -25 -11 0 -13 15 -9 63 5 59 4 63
-26 91 -28 27 -31 35 -31 94 0 46 -3 63 -12 60 -10 -4 -14 -58 -18 -211 -5
-207 -13 -248 -41 -220 -13 13 -4 33 17 33 12 0 14 31 14 185 0 102 -3 185 -6
185 -4 0 -22 -9 -40 -21 l-34 -21 0 -183 c0 -209 -2 -205 84 -205 36 0 48 -5
65 -26 12 -15 21 -40 21 -55 0 -19 5 -29 15 -29 8 0 15 -7 15 -15 0 -8 -6 -15
-14 -15 -14 0 -26 29 -26 66 0 36 -41 64 -92 64 -75 0 -78 8 -78 214 l0 177
-30 -21 c-24 -17 -28 -25 -20 -40 6 -10 10 -93 10 -183 0 -187 4 -197 77 -197
28 0 46 -6 61 -23 34 -36 28 -71 -19 -122 -23 -25 -44 -43 -47 -40 -3 3 13 25
36 48 68 70 50 127 -40 127 -75 0 -78 9 -78 207 0 135 -3 173 -14 182 -9 8
-16 8 -20 2 -4 -5 -2 -12 4 -16 6 -4 10 -73 10 -179 l0 -172 40 -39 c37 -36
43 -38 61 -26 24 14 47 1 34 -19 -12 -20 -58 -1 -102 43 l-43 41 0 173 c0 147
-2 175 -15 180 -21 8 -30 -3 -17 -20 8 -9 13 -90 14 -238 l3 -224 28 -13 c23
-11 26 -16 16 -28 -13 -15 -29 -10 -29 10 0 8 -7 19 -15 26 -13 10 -15 49 -15
235 0 166 -3 225 -12 233 -10 8 -12 -25 -10 -161 2 -160 1 -174 -18 -196 -12
-14 -26 -21 -36 -17 -13 5 -14 9 -4 21 7 8 16 13 20 10 4 -3 13 1 19 9 17 20
11 318 -6 324 -10 3 -13 -15 -13 -67 l0 -71 -54 0 c-50 0 -56 3 -89 39 -28 31
-40 38 -61 34 -14 -3 -56 4 -94 16 -75 23 -162 80 -306 201 -153 129 -237 164
-304 127z m1738 -1277 c37 -37 126 -114 197 -170 70 -57 130 -104 132 -106 4
-3 49 -254 45 -254 -1 0 -31 39 -67 88 -35 48 -109 138 -163 201 -196 226
-235 273 -264 324 -16 29 -30 57 -30 62 1 6 8 -3 16 -18 9 -16 18 -27 21 -24
2 3 0 14 -6 25 -22 42 -10 34 19 -12 17 -26 62 -78 100 -116z"/>
<path d="M1127 3549 c-85 -20 -180 -90 -229 -170 -17 -26 -48 -122 -48 -146 0
-7 9 -13 20 -13 14 0 20 7 20 23 0 119 158 277 278 277 16 0 23 5 20 17 -4 21
-14 23 -61 12z"/>
<path d="M1119 3291 c-35 -35 -39 -44 -39 -88 0 -140 184 -184 241 -59 23 51
23 69 2 113 -21 46 -67 73 -122 73 -37 0 -49 -6 -82 -39z m131 -6 c57 -30 69
-103 24 -149 -81 -80 -213 30 -143 118 36 45 73 55 119 31z"/>
<path d="M767 3140 c-15 -117 -125 -234 -239 -255 -29 -5 -35 -10 -31 -26 4
-15 11 -17 32 -12 127 31 230 129 265 252 20 70 20 81 -3 81 -14 0 -20 -10
-24 -40z"/>
<path d="M850 3160 c0 -14 6 -20 23 -20 44 0 121 -36 170 -80 53 -48 107 -144
107 -192 0 -22 5 -28 20 -28 19 0 20 4 14 38 -25 145 -150 271 -296 296 -34 6
-38 5 -38 -14z"/>
<path d="M762 2930 c-34 -21 -62 -72 -62 -112 0 -61 69 -128 133 -128 70 0
127 62 127 139 0 37 -6 49 -39 82 -33 33 -45 39 -82 39 -26 0 -57 -8 -77 -20z
m142 -51 c24 -27 27 -38 22 -68 -7 -48 -46 -81 -95 -81 -96 0 -127 128 -43
175 38 21 82 11 116 -26z"/>
<path d="M1234 2796 c-9 -23 22 -116 56 -168 53 -80 144 -139 239 -154 38 -6
43 -5 39 12 -2 13 -16 21 -46 26 -121 20 -230 130 -250 251 -8 42 -28 60 -38
33z"/>
<path d="M1087 2780 c-80 -31 -152 -94 -189 -165 -23 -44 -49 -140 -40 -149
15 -16 30 -2 36 35 9 57 41 117 90 167 46 49 92 76 160 93 27 7 46 17 46 25 0
20 -45 17 -103 -6z"/>
<path d="M2760 2628 c-19 -16 -99 -61 -177 -100 -141 -70 -143 -71 -143 -104
0 -20 5 -34 12 -34 24 0 177 81 225 119 46 36 130 137 122 145 -2 2 -20 -9
-39 -26z"/>
<path d="M1165 2566 c-130 -59 -98 -246 42 -246 79 0 133 51 133 125 0 93 -94
158 -175 121z m96 -36 c29 -16 51 -67 44 -100 -8 -37 -58 -80 -94 -80 -54 0
-104 62 -93 116 10 54 92 91 143 64z"/>
<path d="M2729 2504 c-30 -33 -133 -101 -216 -143 l-62 -31 11 -32 c6 -18 12
-34 13 -36 5 -7 113 63 161 103 50 43 132 150 122 160 -2 3 -15 -7 -29 -21z"/>
<path d="M557 2499 c-4 -13 -7 -38 -7 -55 0 -20 -12 -47 -33 -75 -18 -24 -36
-52 -40 -62 -4 -9 -18 -22 -32 -27 -14 -5 -25 -14 -25 -19 0 -6 -11 -16 -24
-23 -14 -7 -73 -44 -133 -82 -203 -130 -263 -187 -263 -252 0 -16 18 -78 39
-139 35 -98 41 -110 64 -113 25 -3 26 -1 30 55 l3 58 2 -57 c2 -65 14 -73 50
-35 13 14 22 36 22 55 0 18 5 32 10 32 6 0 10 -15 10 -33 0 -30 32 -77 53 -77
4 0 7 27 7 60 0 33 4 60 10 60 6 0 10 -27 10 -60 l0 -60 65 0 65 0 0 70 c0 40
4 70 10 70 6 0 10 -30 10 -70 0 -38 4 -70 8 -70 5 0 19 11 32 25 18 19 23 36
23 70 0 25 3 48 8 51 5 3 9 -18 9 -46 0 -41 5 -56 25 -75 38 -39 45 -32 45 50
0 43 4 75 10 75 6 0 10 -32 10 -75 l0 -75 65 0 65 0 0 75 c0 41 3 75 8 75 4 0
6 -34 4 -75 -5 -83 6 -95 46 -52 17 18 22 36 22 75 0 29 5 52 10 52 6 0 10
-24 10 -53 0 -43 5 -58 23 -75 38 -36 46 -28 50 51 l3 72 2 -72 2 -73 71 0 70
0 -2 70 c-1 47 2 75 12 86 20 25 89 54 127 54 34 0 40 8 20 28 -31 31 -118 1
-179 -60 -26 -28 -50 -44 -54 -39 -19 32 75 115 154 137 65 18 75 44 17 44
-51 0 -128 -43 -179 -100 -26 -29 -44 -44 -40 -35 4 13 3 16 -6 11 -9 -6 -8 1
3 21 31 62 128 127 206 139 30 5 40 11 38 23 -10 47 -179 -19 -250 -98 -31
-34 -44 -43 -44 -30 0 9 4 15 8 13 4 -3 8 0 8 5 0 6 -9 11 -20 11 -15 0 -11 8
23 39 40 37 42 43 42 95 0 51 -3 59 -38 93 -34 35 -42 38 -92 38 -48 0 -58 -4
-89 -34 -22 -22 -39 -50 -45 -75 -5 -25 -9 -32 -10 -18 -1 14 -5 21 -12 16 -7
-4 -7 1 1 16 9 17 9 25 -1 34 -9 8 -10 8 -5 -1 3 -6 1 -15 -5 -19 -8 -5 -9 -3
-4 6 6 10 4 12 -8 7 -9 -3 9 19 41 51 65 64 100 130 109 203 5 39 3 49 -9 49
-10 0 -19 -19 -27 -55 -7 -30 -27 -76 -44 -102 -31 -46 -108 -113 -130 -113
-6 0 -2 7 9 15 17 13 17 14 1 9 -10 -4 9 20 42 53 46 46 63 72 75 113 21 72
21 90 -4 90 -15 0 -20 -7 -20 -25 0 -87 -113 -209 -172 -186 -13 6 -17 10 -10
10 30 2 101 62 121 104 32 67 26 138 -12 137 -1 0 -3 -20 -3 -45 -2 -57 -39
-116 -87 -138 -39 -19 -71 -22 -62 -7 4 6 12 7 18 4 7 -4 9 -4 5 1 -5 5 8 19
27 32 60 41 82 116 51 172 l-13 23 -6 -23z m338 -361 c15 -14 28 -38 31 -59
13 -82 -92 -134 -151 -74 -28 27 -34 88 -12 116 33 43 93 51 132 17z"/>
<path d="M1527 2390 c-15 -116 -134 -239 -250 -258 -30 -5 -43 -13 -45 -26 -4
-17 1 -18 39 -12 63 10 137 49 188 98 47 46 98 142 108 202 5 31 3 36 -14 36
-16 0 -22 -8 -26 -40z"/>
<path d="M850 2407 c0 -9 14 -17 38 -22 128 -23 235 -126 262 -252 9 -40 15
-50 27 -46 12 5 14 15 9 47 -22 137 -151 264 -288 282 -39 6 -48 4 -48 -9z"/>
<path d="M3573 2083 c0 -185 -12 -321 -33 -385 -14 -42 -3 -33 24 20 56 110
71 185 71 352 l0 155 -28 28 c-15 15 -29 27 -31 27 -2 0 -3 -89 -3 -197z"/>
<path d="M2781 2124 c-2 -186 72 -415 197 -610 28 -44 64 -91 79 -104 15 -14
22 -18 16 -10 -19 26 -65 146 -49 130 58 -60 156 -187 156 -202 0 -11 4 -17 9
-14 11 7 -4 77 -26 120 -8 17 -64 105 -122 196 -149 230 -154 239 -201 390
-23 74 -46 146 -50 160 -6 18 -9 1 -9 -56z"/>
<path d="M3709 2128 c0 -13 -15 -97 -33 -188 -19 -91 -32 -167 -30 -169 7 -7
73 140 98 217 31 98 32 115 9 142 -23 27 -43 25 -44 -2z"/>
<path d="M3799 1877 c-63 -62 -192 -186 -286 -277 -94 -91 -202 -200 -241
-243 l-70 -79 -69 52 c-37 29 -114 94 -169 146 l-102 93 -38 158 c-21 87 -42
162 -46 167 -10 12 -9 -113 1 -176 4 -27 6 -48 3 -48 -3 0 -29 13 -57 29 -32
18 -57 26 -65 21 -9 -6 -5 -12 16 -25 103 -62 171 -115 229 -176 37 -40 63
-75 59 -81 -5 -7 -25 8 -53 39 -56 62 -164 152 -237 199 -40 26 -59 32 -71 26
-14 -8 -11 -12 16 -27 37 -19 131 -84 131 -91 0 -2 -19 5 -42 17 -83 42 -168
70 -186 60 -14 -8 -15 -10 -2 -14 53 -16 114 -42 175 -75 57 -30 83 -53 145
-129 71 -87 100 -110 100 -79 0 7 -34 53 -76 102 l-76 89 74 -76 c67 -69 83
-94 161 -250 47 -96 88 -185 92 -199 3 -14 -9 7 -28 46 -48 99 -93 167 -193
289 -113 139 -208 210 -341 254 -58 20 -93 20 -93 0 0 -4 17 -11 38 -14 20 -4
75 -25 122 -48 65 -31 102 -58 155 -112 195 -196 313 -409 330 -598 6 -65 10
-78 23 -75 9 2 19 17 23 33 l6 30 4 -30 c4 -30 4 -30 79 -34 171 -10 355 -6
387 8 48 20 77 72 71 126 -9 75 -61 122 -247 222 -115 61 -211 122 -211 133 0
10 127 157 249 288 110 118 241 237 369 335 80 61 92 77 70 95 -11 8 -39 -14
-129 -101z"/>
<path d="M1178 1820 c-15 -5 -41 -19 -57 -32 -27 -21 -30 -29 -30 -80 -1 -44
2 -58 13 -58 24 0 57 51 54 82 -2 17 3 33 12 38 26 16 76 11 104 -11 31 -24
34 -43 6 -34 -18 6 -20 2 -20 -34 l0 -41 66 0 c61 0 65 1 62 22 -2 14 -14 25
-35 32 -25 9 -30 14 -23 27 25 45 -85 109 -152 89z"/>
<path d="M3945 1778 c-76 -18 -170 -51 -220 -75 -64 -32 -135 -76 -135 -84 0
-4 27 4 60 18 73 29 196 61 267 70 29 3 57 11 62 17 12 16 23 66 14 65 -5 -1
-26 -5 -48 -11z"/>
<path d="M3844 1649 c-57 -3 -132 -16 -170 -27 -69 -22 -180 -79 -171 -89 3
-2 14 0 25 6 27 15 185 38 310 46 99 7 104 8 113 33 5 14 6 28 2 31 -4 4 -54
4 -109 0z"/>
<path d="M140 1542 c0 -80 21 -192 37 -192 22 0 32 43 33 136 0 92 -2 102 -23
122 -41 38 -47 29 -47 -66z"/>
<path d="M252 1607 c-20 -21 -22 -34 -22 -128 0 -100 1 -107 25 -129 14 -13
27 -21 31 -18 3 3 6 72 7 152 2 155 -1 165 -41 123z"/>
<path d="M310 1480 l0 -150 64 0 65 0 3 150 3 150 -67 0 -68 0 0 -150z"/>
<path d="M460 1480 c0 -82 4 -150 8 -150 5 0 19 11 32 25 21 22 23 33 22 126
-1 81 -4 106 -19 125 -37 50 -43 33 -43 -126z"/>
<path d="M562 1607 c-20 -21 -22 -34 -22 -123 0 -97 1 -101 28 -127 15 -15 31
-27 35 -27 4 0 7 68 7 150 0 162 -4 173 -48 127z"/>
<path d="M628 1480 l3 -150 65 0 64 0 0 150 0 150 -67 0 -68 0 3 -150z"/>
<path d="M770 1486 c0 -93 4 -147 11 -151 6 -4 21 3 35 16 22 21 24 29 24 129
0 98 -2 108 -23 128 -44 41 -47 32 -47 -122z"/>
<path d="M882 1607 c-20 -21 -22 -34 -22 -128 0 -97 2 -107 23 -127 44 -41 47
-33 47 128 0 162 -4 173 -48 127z"/>
<path d="M940 1480 l0 -150 70 0 70 0 0 150 0 150 -70 0 -70 0 0 -150z"/>
<path d="M1090 1480 c0 -82 3 -150 7 -150 4 0 20 12 35 27 27 26 28 30 28 128
0 93 -2 103 -23 123 -44 41 -47 33 -47 -128z"/>
<path d="M1201 1606 c-20 -22 -23 -34 -23 -126 0 -92 3 -104 23 -126 12 -13
26 -24 31 -24 4 0 8 68 8 150 0 83 -4 150 -8 150 -5 0 -19 -11 -31 -24z"/>
<path d="M1260 1480 l0 -150 65 0 65 0 0 150 0 150 -65 0 -65 0 0 -150z"/>
<path d="M1410 1480 c0 -82 4 -150 8 -150 5 0 18 10 30 23 20 21 22 34 22 128
0 97 -2 107 -23 127 -13 12 -26 22 -30 22 -4 0 -7 -67 -7 -150z"/>
<path d="M1512 1607 c-20 -21 -22 -34 -22 -123 0 -97 1 -101 28 -127 15 -15
31 -27 35 -27 12 0 3 293 -9 297 -5 2 -20 -7 -32 -20z"/>
<path d="M1574 1597 c-2 -7 -3 -69 -2 -138 l3 -124 68 -3 68 -3 -3 101 -3 101
-63 40 c-46 29 -64 36 -68 26z"/>
<path d="M2390 1585 c0 -2 24 -17 53 -31 131 -67 293 -205 339 -291 56 -103
130 -299 155 -406 13 -62 27 -114 29 -116 2 -3 9 0 15 6 26 26 -65 312 -158
497 -54 108 -151 200 -315 302 -61 37 -118 56 -118 39z"/>
<path d="M2526 1572 c-3 -5 48 -45 113 -90 135 -92 151 -112 215 -269 24 -59
60 -146 79 -193 19 -47 43 -123 52 -170 18 -88 30 -115 40 -87 11 28 -26 180
-67 277 -23 52 -60 141 -84 198 -60 147 -81 173 -209 256 -137 91 -133 88
-139 78z"/>
<path d="M3588 1524 c-60 -14 -197 -80 -145 -69 93 19 206 26 323 21 l130 -7
12 26 c7 15 10 31 7 36 -9 14 -262 9 -327 -7z"/>
<path d="M2235 1461 c-3 -5 18 -17 47 -25 29 -9 64 -23 78 -31 l25 -14 -28 -1
c-15 0 -54 11 -87 24 -55 23 -70 24 -70 5 0 -13 109 -49 181 -59 83 -12 101
-20 206 -98 94 -70 140 -127 193 -237 44 -93 67 -180 76 -288 8 -93 30 -102
27 -11 -6 152 -64 317 -155 439 -95 127 -461 347 -493 296z"/>
<path d="M3480 1426 c-66 -16 -106 -31 -114 -45 -4 -6 7 -6 31 1 44 12 155 5
333 -21 69 -10 126 -18 126 -17 1 0 5 15 8 32 l7 32 -68 12 c-107 18 -261 21
-323 6z"/>
<path d="M2165 1370 c-7 -12 -8 -12 121 -43 56 -14 127 -37 158 -53 85 -41
179 -125 235 -207 88 -130 109 -181 131 -310 11 -66 20 -123 20 -129 0 -5 5
-6 11 -2 27 17 -19 255 -66 339 -123 220 -257 331 -465 383 -112 28 -139 32
-145 22z"/>
<path d="M2104 1328 c-9 -15 -4 -17 117 -47 215 -54 262 -83 380 -229 88 -109
156 -253 170 -361 6 -46 9 -103 6 -127 -6 -53 4 -57 22 -8 15 42 8 138 -15
223 -47 166 -215 391 -341 459 -83 44 -327 109 -339 90z"/>
<path d="M3335 1325 c-30 -13 -30 -13 26 -14 35 -1 126 -21 248 -56 106 -30
194 -55 196 -55 2 0 8 13 13 30 l11 30 -82 25 c-181 54 -346 71 -412 40z"/>
<path d="M310 1168 l0 -148 68 0 67 0 -2 146 -2 146 -65 2 -66 1 0 -147z"/>
<path d="M460 1170 c0 -158 5 -174 44 -131 14 15 17 40 18 125 1 109 -4 126
-44 147 -17 9 -18 2 -18 -141z"/>
<path d="M567 1292 c-26 -27 -27 -33 -27 -128 0 -92 2 -102 23 -122 44 -41 47
-33 47 128 0 83 -4 150 -8 150 -5 0 -20 -13 -35 -28z"/>
<path d="M630 1315 c0 0 -2 -66 -3 -148 l-2 -147 68 0 67 0 0 144 0 144 -65 4
c-36 1 -65 3 -65 3z"/>
<path d="M777 1313 c-4 -3 -7 -71 -7 -150 0 -154 5 -166 48 -120 20 21 22 34
22 123 0 97 -1 101 -28 127 -16 15 -31 24 -35 20z"/>
<path d="M887 1292 c-26 -27 -27 -33 -27 -128 0 -92 2 -102 23 -122 44 -41 47
-32 47 122 0 80 -4 147 -8 150 -5 3 -21 -7 -35 -22z"/>
<path d="M1003 1312 l-63 -3 0 -144 0 -145 70 0 70 0 0 144 c0 80 -3 146 -7
148 -5 2 -36 2 -70 0z"/>
<path d="M1097 1313 c-4 -3 -7 -71 -7 -150 0 -154 5 -166 48 -120 20 21 22 34
22 123 0 97 -1 101 -28 127 -16 15 -31 24 -35 20z"/>
<path d="M1205 1297 c-26 -22 -27 -26 -27 -131 0 -88 4 -111 18 -127 39 -43
44 -28 44 131 0 83 -2 150 -4 150 -3 0 -17 -10 -31 -23z"/>
<path d="M1260 1168 l0 -148 65 0 65 0 0 148 0 147 -65 0 -65 0 0 -147z"/>
<path d="M1410 1165 c0 -164 0 -163 43 -127 14 13 17 33 17 127 0 94 -3 114
-17 127 -43 36 -43 37 -43 -127z"/>
<path d="M1517 1292 c-26 -27 -27 -34 -27 -128 0 -97 1 -101 28 -127 15 -15
31 -27 35 -27 10 0 9 298 -1 304 -5 3 -21 -7 -35 -22z"/>
<path d="M1573 1305 c-2 -6 -2 -74 -1 -150 l3 -140 68 -3 67 -3 0 150 0 149
-66 4 c-40 2 -68 -1 -71 -7z"/>
<path d="M1727 1313 c-11 -10 -8 -303 2 -303 6 0 21 11 35 24 25 22 26 29 26
128 0 101 -1 105 -28 131 -16 15 -31 24 -35 20z"/>
<path d="M1837 1300 c-26 -21 -27 -24 -27 -134 0 -106 1 -114 24 -136 14 -12
32 -20 40 -17 9 4 18 2 21 -3 4 -6 -4 -10 -18 -10 -26 0 -72 -44 -80 -75 -4
-16 -5 -15 -6 6 -2 49 -36 67 -133 68 l-87 2 -4 -73 -3 -73 -2 73 c-2 79 -12
89 -50 49 -20 -21 -22 -34 -22 -125 0 -80 4 -109 17 -130 17 -27 17 -27 -2
-10 -19 15 -21 15 -42 -1 -20 -17 -21 -20 -6 -42 l16 -24 -24 22 -23 23 27 28
c26 27 27 33 27 128 0 97 -1 101 -28 127 -15 15 -31 27 -35 27 -4 0 -7 -28 -8
-62 -1 -72 -17 -54 -18 20 l-1 42 -65 0 -65 0 -1 -122 c-2 -106 -3 -114 -9
-63 -4 33 -8 88 -9 123 -1 34 -5 62 -9 62 -5 0 -20 -12 -34 -27 -23 -26 -25
-37 -27 -126 -2 -91 -1 -101 20 -123 20 -21 31 -24 102 -24 98 0 97 -6 -2 -13
-55 -3 -78 -9 -93 -24 -20 -20 -20 -20 13 -89 17 -38 52 -143 76 -234 47 -177
90 -281 128 -306 39 -26 94 -25 137 2 57 36 81 94 113 269 12 64 24 98 42 119
13 16 33 47 45 70 31 63 169 190 246 228 71 35 166 48 232 31 75 -19 89 -126
44 -330 -30 -140 -64 -345 -64 -391 0 -22 4 -32 12 -30 8 3 19 54 30 134 9 71
29 179 43 239 31 130 42 263 26 321 -18 68 -46 85 -143 91 -91 5 -159 -12
-234 -60 -68 -43 -175 -149 -206 -204 -39 -69 -50 -74 -31 -15 8 26 24 80 35
120 23 81 30 88 148 147 65 33 85 38 189 47 188 15 242 -9 260 -113 26 -150
24 -185 -18 -341 -42 -150 -47 -178 -33 -178 5 0 28 69 51 153 42 146 43 156
38 252 -12 218 -44 255 -221 255 -133 -1 -211 -16 -292 -59 -48 -25 -74 -34
-74 -25 0 7 7 19 15 28 8 8 15 23 15 34 0 29 18 39 121 67 123 33 318 52 376
36 65 -18 108 -65 122 -133 18 -83 28 -235 20 -287 -22 -148 -52 -309 -75
-399 -25 -95 -26 -129 -5 -106 27 28 102 402 109 544 7 148 -22 305 -66 353
-41 46 -90 60 -207 58 -103 -2 -267 -27 -331 -51 -15 -6 -29 -8 -32 -5 -25 24
143 62 321 72 100 6 123 16 63 27 -30 6 -290 -25 -340 -40 -12 -4 -17 -2 -14
7 3 9 58 21 168 37 l164 23 80 -25 c142 -45 165 -70 206 -222 19 -70 20 -96
15 -224 -5 -119 -14 -181 -51 -346 -24 -111 -44 -205 -44 -209 0 -16 28 17 33
38 2 12 21 96 42 187 31 141 37 189 42 330 5 148 4 173 -16 243 -40 148 -70
180 -208 226 -75 25 -121 26 -278 2 -66 -10 -121 -17 -123 -15 -2 1 1 11 7 22
9 17 26 20 153 26 96 5 165 4 211 -4 63 -11 89 -9 74 6 -17 17 -203 31 -299
22 -103 -9 -121 -7 -99 15 16 16 231 15 330 -2 84 -15 122 -43 185 -134 60
-87 86 -182 86 -310 0 -82 3 -108 13 -105 17 6 21 136 7 218 -14 79 -42 148
-91 221 -81 120 -122 137 -361 148 -119 5 -146 9 -139 19 7 11 37 11 179 -1
152 -13 176 -18 222 -43 61 -33 96 -78 155 -199 41 -84 45 -98 55 -211 l10
-121 -62 -254 c-33 -140 -63 -270 -66 -289 -4 -30 -3 -33 11 -22 8 7 17 23 20
35 2 12 30 128 62 257 37 154 57 256 56 295 0 102 -12 218 -27 254 -18 43 -10
53 10 12 61 -118 61 -297 0 -511 -28 -98 -28 -100 -10 -100 15 0 58 141 77
254 15 88 6 245 -17 315 -12 37 -37 75 -78 121 -34 37 -77 89 -96 116 -58 81
-115 103 -306 120 -88 7 -160 13 -161 14 -2 0 -3 6 -3 14 0 7 -16 33 -35 57
-26 33 -42 44 -65 45 l-30 2 -2 -132 -2 -131 -3 125 c-2 68 -7 128 -12 133 -4
4 -20 -2 -34 -13z"/>
<path d="M2689 1278 c7 -10 10 -18 7 -18 -4 0 8 -19 27 -42 56 -69 115 -166
131 -216 9 -26 22 -90 31 -142 8 -52 18 -110 21 -129 4 -25 8 -31 17 -22 15
15 -17 223 -48 308 -26 72 -83 161 -126 197 -15 13 -26 26 -23 28 2 3 -8 15
-23 29 -15 13 -21 16 -14 7z"/>
<path d="M2050 1255 c-11 -13 -7 -15 26 -15 55 0 266 -45 316 -68 27 -12 77
-55 135 -116 76 -79 101 -114 138 -189 66 -136 74 -199 46 -362 -12 -72 -30
-166 -41 -209 -25 -100 -21 -118 9 -40 60 156 87 403 56 509 -31 110 -91 208
-188 311 -49 52 -106 103 -126 113 -40 20 -180 55 -281 71 -81 12 -75 13 -90
-5z"/>
<path d="M3275 1260 c-17 -7 -15 -9 13 -9 19 -1 82 -27 155 -65 126 -65 235
-112 285 -122 23 -5 30 -1 40 20 6 14 8 27 4 30 -29 17 -326 130 -376 141 -69
17 -92 17 -121 5z"/>
<path d="M2896 1232 c-3 -5 16 -42 41 -83 73 -117 91 -165 104 -274 13 -106
21 -127 41 -107 15 15 -3 173 -26 240 -17 47 -133 232 -146 232 -5 0 -11 -4
-14 -8z"/>
<path d="M310 960 c0 -23 7 -52 17 -66 15 -24 80 -64 103 -64 6 0 10 33 10 85
l0 85 -65 0 -65 0 0 -40z"/>
<path d="M630 900 c0 -73 3 -100 13 -101 6 -1 36 -3 65 -5 l52 -4 0 105 0 105
-65 0 -65 0 0 -100z"/>
<path d="M940 888 l0 -113 58 -18 c31 -10 63 -20 70 -23 9 -4 12 25 12 130 l0
136 -70 0 -70 0 0 -112z"/>
<path d="M1090 862 c0 -154 8 -177 47 -140 21 20 23 30 23 123 0 98 -1 102
-28 128 -15 15 -31 27 -35 27 -4 0 -7 -62 -7 -138z"/>
<path d="M2013 890 c-98 -20 -183 -52 -183 -70 0 -6 18 -1 41 10 59 30 211 62
304 63 64 1 88 -3 120 -20 90 -47 106 -85 112 -263 6 -152 -8 -225 -72 -393
-19 -48 -39 -106 -45 -130 -6 -23 -14 -50 -17 -61 -3 -11 -1 -16 5 -12 6 3 14
21 17 38 4 17 25 78 46 134 67 178 80 243 79 391 0 170 -12 227 -56 271 -18
18 -38 31 -44 27 -5 -3 -10 -2 -10 4 0 16 -69 31 -140 30 -36 0 -106 -9 -157
-19z"/>
<path d="M2196 741 c-4 -5 -2 -12 4 -16 6 -4 22 -29 35 -56 l26 -49 -40 -193
c-22 -105 -51 -240 -64 -300 -14 -59 -21 -110 -16 -113 5 -3 9 -4 10 -2 0 2 9
41 19 88 10 47 30 136 45 198 14 62 35 161 45 219 l20 105 -21 48 c-23 53 -53
87 -63 71z"/>
<path d="M2038 640 c-24 -16 -87 -74 -140 -128 -101 -104 -103 -107 -154 -282
-15 -52 -38 -119 -51 -148 -27 -62 -27 -62 -9 -62 17 0 50 83 102 255 l36 120
117 117 c118 119 156 142 187 117 38 -31 -7 -147 -123 -318 -37 -53 -77 -120
-90 -149 -28 -63 -32 -152 -8 -152 13 0 15 7 10 34 -9 47 22 117 111 251 131
198 169 313 115 356 -32 26 -50 24 -103 -11z"/>
<path d="M2024 562 c-21 -16 -54 -45 -72 -66 -43 -49 -85 -133 -71 -141 13 -8
12 -10 38 43 25 48 143 172 148 155 6 -17 -28 -79 -86 -156 -99 -135 -150
-255 -151 -355 0 -39 23 -40 28 -1 11 113 61 227 146 337 83 108 121 212 78
212 -11 0 -37 -13 -58 -28z"/>
</g>
</svg>
